<?xml version="1.0" encoding="UTF-8" standalone="no"?>
<svg
   xmlns:dc="http://purl.org/dc/elements/1.1/"
   xmlns:cc="http://creativecommons.org/ns#"
   xmlns:rdf="http://www.w3.org/1999/02/22-rdf-syntax-ns#"
   xmlns:svg="http://www.w3.org/2000/svg"
   xmlns="http://www.w3.org/2000/svg"
   xmlns:sodipodi="http://sodipodi.sourceforge.net/DTD/sodipodi-0.dtd"
   xmlns:inkscape="http://www.inkscape.org/namespaces/inkscape"
   version="1.1"
   x="0px"
   y="0px"
   viewBox="0 0 48 48"
   xml:space="preserve"
   id="svg42"
   sodipodi:docname="simple-sim-icon.svg"
   width="48"
   height="48"
   inkscape:version="1.0.1 (3bc2e813f5, 2020-09-07)"
   inkscape:export-filename="\\Mac\Home\Downloads\simple-sim-icon-90.png"
   inkscape:export-xdpi="180"
   inkscape:export-ydpi="180"><metadata
     id="metadata48"><rdf:RDF><cc:Work
         rdf:about=""><dc:format>image/svg+xml</dc:format><dc:type
           rdf:resource="http://purl.org/dc/dcmitype/StillImage" /><dc:title></dc:title></cc:Work></rdf:RDF></metadata><defs
     id="defs46" /><sodipodi:namedview
     pagecolor="#ffffff"
     bordercolor="#666666"
     borderopacity="1"
     objecttolerance="10"
     gridtolerance="10"
     guidetolerance="10"
     inkscape:pageopacity="0"
     inkscape:pageshadow="2"
     inkscape:window-width="1920"
     inkscape:window-height="1018"
     id="namedview44"
     showgrid="false"
     fit-margin-top="0"
     fit-margin-left="0"
     fit-margin-right="0"
     fit-margin-bottom="0"
     inkscape:zoom="13.399941"
     inkscape:cx="24.078111"
     inkscape:cy="18.145576"
     inkscape:window-x="-6"
     inkscape:window-y="-6"
     inkscape:window-maximized="1"
     inkscape:current-layer="svg42" /><style
     type="text/css"
     id="style2">
	.st0{fill:none;stroke:#000000;stroke-width:2;stroke-linecap:round;stroke-linejoin:round;stroke-miterlimit:10;}
	.st1{fill:#FFFFFF;}
	.st2{fill:#2A3D4F;stroke:#000000;stroke-width:0;stroke-miterlimit:10;}
	.st3{fill:none;stroke:#000000;stroke-width:2;stroke-miterlimit:10;}
</style><g
     id="g896"
     transform="translate(0,6)"><path
       style="fill:#ffffff;stroke:none;stroke-width:1px;stroke-linecap:butt;stroke-linejoin:miter;stroke-opacity:1"
       d="M 1.3582238,1.4030267 H 46.507677 V 26.552392 L 37.92555,34.686756 1.3582238,34.612128 Z"
       id="path875"
       sodipodi:nodetypes="cccccc" /><rect
       style="fill:#cccccc;stroke-width:2.6;stroke-linejoin:round;stroke-miterlimit:10"
       id="rect873"
       width="19.17919"
       height="19.253817"
       x="7.4776535"
       y="8.3433552" /><g
       id="g36"
       transform="rotate(90,29,21)"><g
         id="g6"><path
           d="M 41,50 H 11 C 9.3,50 8,48.7 8,47 V 5 C 8,3.3 9.3,2 11,2 H 34.4 L 44,11.6 V 47 c 0,1.7 -1.3,3 -3,3 z M 11,4 c -0.6,0 -1,0.4 -1,1 v 42 c 0,0.6 0.4,1 1,1 h 30 c 0.6,0 1,-0.4 1,-1 V 12.4 L 33.6,4 Z"
           id="path4" /></g><g
         id="g10"><path
           d="M 34,44 H 18 c -1.7,0 -3,-1.3 -3,-3 V 25 c 0,-1.7 1.3,-3 3,-3 h 16 c 1.7,0 3,1.3 3,3 v 16 c 0,1.7 -1.3,3 -3,3 z M 18,24 c -0.6,0 -1,0.4 -1,1 v 16 c 0,0.6 0.4,1 1,1 h 16 c 0.6,0 1,-0.4 1,-1 V 25 c 0,-0.6 -0.4,-1 -1,-1 z"
           id="path8" /></g><g
         id="g14"><path
           d="M 21.4,39 H 15 V 27 h 6.4 l 2.6,2.6 v 6.8 z M 17,37 h 3.6 L 22,35.6 V 30.4 L 20.6,29 H 17 Z"
           id="path12" /></g><g
         id="g18"><rect
           x="16"
           y="32"
           width="7"
           height="2"
           id="rect16" /></g><g
         id="g22"><path
           d="M 37,39 H 30.6 L 28,36.4 V 29.6 L 30.6,27 H 37 Z M 31.4,37 H 35 V 29 H 31.4 L 30,30.4 v 5.2 z"
           id="path20" /></g><g
         id="g26"><rect
           x="29"
           y="32"
           width="7"
           height="2"
           id="rect24" /></g><g
         id="g30"><rect
           x="25"
           y="23"
           width="2"
           height="4"
           id="rect28" /></g><g
         id="g34"><rect
           x="25"
           y="39"
           width="2"
           height="4"
           id="rect32" /></g></g></g></svg>
